<?xml version="1.0" encoding="UTF-8"?>
<svg id="Layer_1" data-name="Layer 1" xmlns="http://www.w3.org/2000/svg" viewBox="0 0 577.45 91.18">
  <defs>
    <style>
      .cls-1 {
        fill: #41515a;
      }

      .cls-2 {
        fill: #3bc3dc;
      }
    </style>
  </defs>
  <g>
    <path class="cls-2" d="m0,21.62v68.42c2.35.38,4.69.57,7.04.57,2.22,0,4.53-.19,6.95-.57V21.62c-2.41-.38-4.76-.57-7.04-.57s-4.6.19-6.95.57Z"/>
    <path class="cls-2" d="m146.2,40.84v38.54c-1.59.44-3.55.67-5.9.67-1.71,0-3.2-.21-4.47-.62-1.27-.41-2.33-1.11-3.19-2.09-.86-.98-1.49-2.32-1.9-4-.41-1.68-.62-3.82-.62-6.42v-26.07c-2.28-.38-4.54-.57-6.76-.57s-4.47.19-6.76.57v26.45c0,5.27.67,9.48,2,12.66,1.33,3.17,3.12,5.58,5.38,7.23,2.25,1.65,4.87,2.73,7.85,3.24,2.98.51,6.09.76,9.33.76,3.62,0,7.09-.33,10.42-1,3.33-.67,6.01-1.35,8.04-2.05v-47.29c-2.28-.38-4.54-.57-6.76-.57s-4.38.19-6.66.57Z"/>
    <path class="cls-2" d="m263.67,53.92c-.95-2.89-2.36-5.38-4.23-7.47-1.87-2.09-4.14-3.74-6.8-4.95-2.66-1.2-5.71-1.81-9.13-1.81-3.93,0-7.38.68-10.32,2.05-2.95,1.37-5.42,3.22-7.42,5.57-2,2.35-3.51,5.11-4.52,8.28-1.02,3.17-1.52,6.57-1.52,10.18s.49,7.07,1.48,10.18c.98,3.11,2.51,5.79,4.57,8.04,2.06,2.25,4.73,4.01,7.99,5.28,3.27,1.27,7.18,1.9,11.75,1.9,6.22,0,11.8-.95,16.75-2.85-.06-2.03-.35-3.93-.86-5.71-.51-1.78-1.11-3.3-1.81-4.57-2.03.76-4.17,1.35-6.42,1.76-2.25.41-4.46.62-6.61.62-3.93,0-7.11-.86-9.52-2.57-2.41-1.71-3.74-4.47-4-8.28h31.59c.13-.7.24-1.63.33-2.81.1-1.17.14-2.36.14-3.57,0-3.3-.48-6.39-1.43-9.28Zm-30.55,6.23c.32-3.24,1.3-5.74,2.95-7.52,1.65-1.78,4.06-2.66,7.23-2.66,2.79,0,4.96.94,6.52,2.81,1.55,1.87,2.39,4.33,2.52,7.38h-19.22Z"/>
    <path class="cls-2" d="m61.48,43.69c-2.25-1.65-4.87-2.73-7.85-3.24-2.98-.51-6.09-.76-9.33-.76-3.62,0-7.09.33-10.42,1-3.33.67-6.01,1.35-8.04,2.05v47.29c2.28.38,4.54.57,6.76.57s4.38-.19,6.66-.57v-38.54c1.59-.44,3.55-.67,5.9-.67,1.71,0,3.2.21,4.47.62,1.27.41,2.33,1.11,3.19,2.09.86.98,1.49,2.32,1.9,4,.41,1.68.62,3.82.62,6.42v26.07c2.28.38,4.54.57,6.76.57s4.47-.19,6.76-.57v-26.45c0-5.27-.67-9.48-2-12.66-1.33-3.17-3.12-5.58-5.38-7.23Z"/>
    <path class="cls-2" d="m204.97,43.69c-2.25-1.65-4.87-2.73-7.85-3.24-2.98-.51-6.09-.76-9.33-.76-3.62,0-7.09.33-10.42,1-3.33.67-6.01,1.35-8.04,2.05v47.29c2.28.38,4.54.57,6.76.57s4.38-.19,6.66-.57v-38.54c1.59-.44,3.55-.67,5.9-.67,1.71,0,3.2.21,4.47.62,1.27.41,2.33,1.11,3.19,2.09.86.98,1.49,2.32,1.9,4,.41,1.68.62,3.82.62,6.42v26.07c2.28.38,4.54.57,6.76.57s4.47-.19,6.76-.57v-26.45c0-5.27-.67-9.48-2-12.66-1.33-3.17-3.12-5.58-5.38-7.23Z"/>
    <path class="cls-2" d="m93.52,40.27v-18.32c-2.41-.38-4.76-.57-7.04-.57s-4.6.19-6.95.57v68.42c2.35.38,4.69.57,7.04.57,2.22,0,4.53-.19,6.95-.57v-36.11h13.85c.38-2.41.57-4.76.57-7.04s-.19-4.6-.57-6.95h-13.85Z"/>
  </g>
  <g>
    <path class="cls-1" d="m278.96,22.43c.45-.06.99-.11,1.62-.14s1.21-.05,1.72-.05c.57,0,1.14.02,1.72.05.57.03,1.08.08,1.52.14v29.18h33.76v-29.18c.44-.06.95-.11,1.52-.14s1.14-.05,1.72-.05c.51,0,1.08.02,1.72.05.63.03,1.18.08,1.62.14v68.56c-.38.06-.88.11-1.48.14-.61.03-1.23.05-1.86.05-.57,0-1.14-.02-1.72-.05-.57-.03-1.08-.08-1.52-.14v-33.38h-33.76v33.38c-.45.06-.95.11-1.52.14-.57.03-1.14.05-1.72.05-.64,0-1.25-.02-1.86-.05-.61-.03-1.1-.08-1.48-.14V22.43Z"/>
    <path class="cls-1" d="m342.43,66.67c0,6.48,1.49,11.25,4.48,14.3,2.99,3.05,7.47,4.58,13.44,4.58,2.42,0,4.66-.21,6.72-.62,2.06-.41,4.08-.97,6.05-1.67.32.7.57,1.56.76,2.58.19,1.02.32,1.94.38,2.76-1.84.83-4,1.46-6.48,1.91-2.48.44-5.18.67-8.11.67-4.19,0-7.8-.62-10.82-1.86-3.02-1.24-5.5-2.97-7.44-5.2-1.94-2.22-3.37-4.88-4.29-7.96-.92-3.08-1.38-6.47-1.38-10.15s.43-6.9,1.28-10.01c.86-3.11,2.16-5.85,3.91-8.2,1.75-2.35,3.99-4.2,6.72-5.53,2.73-1.33,6.01-2,9.82-2,3.18,0,6.01.54,8.49,1.62,2.48,1.08,4.56,2.59,6.25,4.53,1.68,1.94,2.96,4.26,3.81,6.96.86,2.7,1.29,5.64,1.29,8.82,0,.57-.02,1.3-.05,2.19-.03.89-.08,1.65-.14,2.29h-34.71Zm28.61-5.25c0-1.97-.26-3.91-.76-5.82-.51-1.91-1.3-3.58-2.38-5.01-1.08-1.43-2.48-2.59-4.2-3.48-1.72-.89-3.78-1.33-6.2-1.33-4.45,0-7.92,1.37-10.39,4.1-2.48,2.73-3.97,6.58-4.48,11.54h28.42Z"/>
    <path class="cls-1" d="m414.67,57.9c0-4.19-.99-7.26-2.96-9.2-1.97-1.94-4.9-2.91-8.77-2.91-2.55,0-4.87.17-6.96.52-2.1.35-3.97.78-5.63,1.29-.32-.57-.59-1.4-.81-2.48-.23-1.08-.33-2.1-.33-3.05,1.65-.51,3.69-.94,6.1-1.29,2.41-.35,4.89-.52,7.44-.52,6.17,0,10.74,1.35,13.73,4.05,2.99,2.7,4.49,6.95,4.49,12.73v32.14c-2.23.45-4.93.89-8.11,1.33-3.18.44-6.2.67-9.06.67-5.91,0-10.57-1.18-13.97-3.53-3.4-2.35-5.1-6.17-5.1-11.45,0-2.54.49-4.82,1.48-6.82.98-2,2.35-3.69,4.1-5.05,1.75-1.37,3.85-2.4,6.29-3.1,2.45-.7,5.13-1.05,8.06-1.05,2.29,0,4.26.08,5.91.24,1.65.16,3.02.3,4.1.43v-2.96Zm0,8.49c-1.08-.12-2.43-.27-4.05-.43s-3.16-.24-4.63-.24c-4.77,0-8.45.89-11.06,2.67-2.61,1.78-3.91,4.33-3.91,7.63,0,2.1.4,3.78,1.19,5.06.8,1.27,1.83,2.24,3.1,2.91,1.27.67,2.67,1.11,4.19,1.33,1.52.23,3.05.34,4.58.34,1.97,0,3.81-.1,5.53-.29,1.72-.19,3.4-.45,5.06-.76v-18.21Z"/>
    <path class="cls-1" d="m517.76,52.08c-1.14-2.86-2.69-5.1-4.63-6.72-1.94-1.62-4.23-2.72-6.86-3.29-2.64-.57-5.45-.86-8.44-.86s-6.02.24-8.92.71c-.47.08-.83.19-1.29.27v-19.77c-.45-.06-.95-.11-1.52-.14-.57-.03-1.14-.05-1.72-.05-.51,0-1.08.02-1.72.05s-1.18.08-1.62.14v68.56c.38.06.87.11,1.48.14.2.01.42,0,.63.02.38.01.79.03,1.04.03.02,0,.07,0,.09,0,.04,0,.07,0,.1,0,.57,0,1.14-.02,1.72-.05.57-.03,1.08-.08,1.52-.14v-43.07c1.21-.35,2.56-.64,4.1-.85,1.65-.23,3.53-.34,5.63-.34,2.48,0,4.71.24,6.67.72,1.97.48,3.64,1.33,5.01,2.57,1.37,1.24,2.4,2.96,3.1,5.15.7,2.2,1.05,5.01,1.05,8.44v27.37c.38.06.9.11,1.57.14.67.03,1.19.05,1.58.05.32,0,.83-.02,1.52-.05.7-.03,1.24-.08,1.62-.14v-27.75c0-4.58-.57-8.3-1.72-11.16Z"/>
    <path class="cls-1" d="m432.61,22.43c.45-.06.99-.11,1.62-.14s1.21-.05,1.72-.05c.57,0,1.14.02,1.72.05.57.03,1.08.08,1.52.14v68.56c-.45.06-.95.11-1.52.14-.57.03-1.14.05-1.72.05-.64,0-1.25-.02-1.86-.05-.61-.03-1.1-.08-1.48-.14V22.43Z"/>
    <path class="cls-1" d="m472.26,38.59c-.03-.64-.08-1.18-.14-1.62h-14.54v-14.54c-.45-.06-.95-.11-1.52-.14-.57-.03-1.14-.05-1.72-.05-.51,0-1.08.02-1.72.05s-1.18.08-1.62.14v68.56c.38.06.87.11,1.48.14.61.03,1.22.05,1.86.05.57,0,1.14-.02,1.72-.05.57-.03,1.08-.08,1.52-.14v-47.44h14.54c.06-.45.11-.95.14-1.52.03-.57.05-1.14.05-1.72,0-.51-.02-1.08-.05-1.72Z"/>
  </g>
  <path class="cls-2" d="m577.45,14.86c0-8.2-6.67-14.86-14.86-14.86-4.69,0-8.88,2.19-11.6,5.59,10.03.43,19.21,4.22,26.43,10.26.02-.33.04-.66.04-.99Z"/>
  <path class="cls-2" d="m528.62,28.89l3.7,3.67c4.33-4.2,10.24-6.79,16.73-6.79s12.43,2.61,16.77,6.83l3.7-3.67c-5.28-5.17-12.51-8.37-20.47-8.37s-15.15,3.18-20.43,8.33Z"/>
  <path class="cls-2" d="m535.51,0c-8.2,0-14.86,6.67-14.86,14.86,0,.33.01.66.04.99,7.23-6.04,16.4-9.83,26.43-10.26-2.72-3.4-6.91-5.59-11.6-5.59Z"/>
  <path class="cls-2" d="m549.05,35.88c3.72,0,7.1,1.46,9.6,3.84l3.7-3.67c-3.45-3.33-8.13-5.38-13.29-5.38s-9.81,2.04-13.26,5.35l3.7,3.67c2.5-2.36,5.86-3.81,9.56-3.81Z"/>
  <path class="cls-2" d="m542.96,43.14l5.62,5.58c.14.14.32.21.5.21s.37-.07.51-.21l5.58-5.54c-1.61-1.49-3.76-2.4-6.13-2.4s-4.48.9-6.09,2.36Z"/>
  <path class="cls-2" d="m525.11,25.47c6.17-6.06,14.62-9.81,23.94-9.81s17.77,3.75,23.94,9.82l.12-.12h0c1.2-1.21,2.2-2.62,2.93-4.18-7.05-6.65-16.55-10.73-26.99-10.73s-19.94,4.08-26.99,10.73c.58,1.22,1.32,2.36,2.19,3.37.27.32.56.63.86.92Z"/>
  <path class="cls-1" d="m541.33,78.31c1.47,1.47,2.21,3.25,2.21,5.33s-.75,3.95-2.26,5.41c-1.47,1.42-3.23,2.13-5.28,2.13s-3.91-.73-5.36-2.18-2.18-3.24-2.18-5.36.78-4.03,2.35-5.49c1.47-1.36,3.2-2.05,5.19-2.05s3.86.74,5.33,2.21Zm-5.33-.92c-1.73,0-3.21.63-4.43,1.88-1.2,1.23-1.8,2.68-1.8,4.37s.61,3.23,1.83,4.45c1.21,1.22,2.68,1.83,4.4,1.83s3.17-.61,4.39-1.84c1.21-1.23,1.82-2.71,1.82-4.44s-.6-3.13-1.81-4.37c-1.22-1.25-2.69-1.88-4.4-1.88Zm-1.12,7.49v2.96h-2.19v-8.36c.52,0,1.29,0,2.33,0,1.03,0,1.61,0,1.72.01.66.05,1.21.19,1.65.43.74.41,1.12,1.07,1.12,2,0,.7-.2,1.21-.59,1.52-.39.31-.87.5-1.45.56.53.11.92.27,1.19.48.49.4.74,1.02.74,1.87v.75c0,.08,0,.16.02.25.01.08.03.16.06.25l.07.24h-2.09c-.07-.27-.11-.65-.13-1.16s-.07-.85-.13-1.02c-.11-.29-.31-.5-.61-.61-.16-.07-.41-.11-.75-.13l-.48-.03h-.46Zm.85-1.5c.51,0,.91-.1,1.2-.31.29-.2.43-.54.43-.99s-.23-.77-.68-.95c-.3-.12-.72-.17-1.27-.17h-.53v2.42h.85Z"/>
</svg>